#!OML:ASF X:\für Bonn\!DataBase\2005_08_12_Daniel\c3d\Daniel.ASF
:FULLY-SPECIFIED
:DEGREES
186
root 2.46935 17.6503 17.6269 -4.08762 21.9081 0.831075
lowerback 6.929 4.57012 4.08494
upperback 0.713781 6.27239 -7.70475
thorax -1.80665 3.16178 -10.9922
lowerneck 4.09465 -8.67288 -5.11958
upperneck 9.58521 -12.0775 5.56298
head 3.13509 -6.04375 2.47274
rclavicle 6.10269e-014 0
rhumerus 65.1819 -28.053 -85.5546
rradius 8.03124
rwrist 62.8585
rhand -0.151516 7.39856
rfingers 7.12502
rthumb 25.4452 -20.923
lclavicle 6.10269e-014 0
lhumerus -31.3709 34.3865 65.0697
lradius 16.5074
lwrist -39.2144
lhand -9.63439 -8.11267
lfingers 7.12502
lthumb 16.3357 21.2193
rfemur 11.862 14.7152 23.16
rtibia 12.4622
rfoot -31.1673 -32.1398
rtoes -8.63639
lfemur -2.00473 -19.8713 -18.8592
ltibia 27.1397
lfoot -20.4377 3.56184
ltoes -16.0156
187
root 2.46986 17.6506 17.6245 -4.08394 21.8331 0.842458
lowerback 6.87327 4.56981 4.03442
upperback 0.73827 6.26878 -7.68623
thorax -1.75834 3.16293 -10.9336
lowerneck 4.04716 -8.66461 -5.08512
upperneck 9.56993 -12.0612 5.52904
head 3.13183 -6.03465 2.45408
rclavicle -6.7885e-014 5.40694e-014
rhumerus 65.2646 -28.0335 -85.6254
rradius 8.01747
rwrist 62.4014
rhand -0.588774 7.37074
rfingers 7.12502
rthumb 25.0263 -21.0098
lclavicle -6.7885e-014 5.40694e-014
lhumerus -31.3573 34.5219 65.0712
lradius 16.4915
lwrist -39.3884
lhand -9.66378 -8.07111
lfingers 7.12502
lthumb 16.3074 21.2632
rfemur 11.8215 14.7456 23.1334
rtibia 12.4994
rfoot -31.1313 -32.1029
rtoes -8.53802
lfemur -1.99081 -19.8513 -18.8804
ltibia 27.1334
lfoot -20.4393 3.61804
ltoes -16.0148
188
root 2.47065 17.6509 17.6205 -4.08574 21.7458 0.8424
lowerback 6.86647 4.56769 3.99839
upperback 0.727615 6.26236 -7.66313
thorax -1.77384 3.1582 -10.8862
lowerneck 4.01932 -8.65633 -5.09498
upperneck 9.58483 -12.0482 5.50316
head 3.13978 -6.02856 2.44599
rclavicle -1.14301e-014 -1.59028e-015
rhumerus 65.3196 -28.0264 -85.6565
rradius 7.9447
rwrist 61.8265
rhand -1.02447 7.38341
rfingers 7.12502
rthumb 24.6088 -21.0547
lclavicle -1.14301e-014 -1.59028e-015
lhumerus -31.3721 34.4832 65.1019
lradius 16.5038
lwrist -39.3681
lhand -9.60926 -8.02727
lfingers 7.12502
lthumb 16.3599 21.3027
rfemur 11.7816 14.775 23.1112
rtibia 12.5232
rfoot -31.1015 -32.0565
rtoes -8.61854
lfemur -1.98032 -19.8255 -18.8924
ltibia 27.1317
lfoot -20.4402 3.67996
ltoes -15.9102
189
root 2.47179 17.6513 17.6166 -4.08728 21.6574 0.842996
lowerback 6.84605 4.5589 3.94123
upperback 0.716314 6.24521 -7.63057
thorax -1.78813 3.14799 -10.814
lowerneck 4.02869 -8.63118 -5.09533
upperneck 9.57238 -12.0123 5.47905
head 3.12948 -6.01161 2.43991
rclavicle -1.02374e-014 -1.09729e-013
rhumerus 65.3824 -27.9896 -85.6882
rradius 7.86866
rwrist 61.2907
rhand -1.50209 7.42143
rfingers 7.12502
rthumb 24.1509 -21.0783
lclavicle -1.02374e-014 -1.09729e-013
lhumerus -31.4389 34.565 65.0889
lradius 16.5029
lwrist -39.4192
lhand -9.62512 -7.97299
lfingers 7.12502
lthumb 16.3446 21.3583
rfemur 11.7317 14.7579 23.0721
rtibia 12.5609
rfoot -31.0203 -31.971
rtoes -8.65445
lfemur -1.96411 -19.8087 -18.9097
ltibia 27.1224
lfoot -20.4379 3.75318
ltoes -15.9091
190
root 2.47273 17.6516 17.6133 -4.11467 21.5833 0.814711
lowerback 6.84137 4.5477 3.93831
upperback 0.711095 6.22944 -7.61402
thorax -1.79664 3.13907 -10.7929
lowerneck 4.02322 -8.62114 -5.02803
upperneck 9.56532 -11.9924 5.41786
head 3.11658 -6.00079 2.40858
rclavicle -2.87244e-014 -1.11319e-014
rhumerus 65.4087 -27.9872 -85.7517
rradius 7.84505
rwrist 60.6589
rhand -2.02302 7.54991
rfingers 7.12502
rthumb 23.6513 -21.0152
lclavicle -2.87244e-014 -1.11319e-014
lhumerus -31.4296 34.4345 65.1533
lradius 16.5261
lwrist -39.2448
lhand -9.63443 -7.89854
lfingers 7.12502
lthumb 16.3357 21.4335
rfemur 11.7131 14.7921 23.0908
rtibia 12.5862
rfoot -30.9819 -31.9452
rtoes -8.67072
lfemur -1.93493 -19.7879 -18.8964
ltibia 27.1146
lfoot -20.4371 3.80362
ltoes -15.9083
191
root 2.47279 17.6517 17.6099 -4.12219 21.5022 0.838563
lowerback 6.80027 4.54257 3.85867
upperback 0.744908 6.2176 -7.587
thorax -1.75256 3.13606 -10.7085
lowerneck 3.93981 -8.60837 -5.08098
upperneck 9.56524 -11.9767 5.44817
head 3.13707 -5.99291 2.4243
rclavicle -1.72943e-014 7.31528e-014
rhumerus 65.3919 -28.0132 -85.7904
rradius 8.01132
rwrist 59.94
rhand -2.40089 7.70969
rfingers 7.12502
rthumb 23.2888 -20.9018
lclavicle -1.72943e-014 7.31528e-014
lhumerus -31.401 34.5724 65.1768
lradius 16.5015
lwrist -39.3171
lhand -9.61384 -7.83638
lfingers 7.12502
lthumb 16.3555 21.494
rfemur 11.6897 14.8186 23.0546
rtibia 12.6192
rfoot -30.9577 -31.8964
rtoes -8.65474
lfemur -1.90159 -19.7481 -18.9309
ltibia 27.102
lfoot -20.436 3.84655
ltoes -15.9076
192
root 2.47457 17.6525 17.6062 -4.11957 21.4027 0.826508
lowerback 6.76555 4.53269 3.8342
upperback 0.74075 6.20192 -7.56632
thorax -1.74597 3.12789 -10.6668
lowerneck 3.90653 -8.59145 -5.05757
upperneck 9.56363 -11.9501 5.41584
head 3.13637 -5.97924 2.40889
rclavicle -4.90998e-014 2.8625e-014
rhumerus 65.301 -28.0148 -85.8444
rradius 8.23509
rwrist 59.2099
rhand -2.81407 7.89019
rfingers 7.12502
rthumb 22.8924 -20.7709
lclavicle -4.90998e-014 2.8625e-014
lhumerus -31.4011 34.5043 65.2312
lradius 16.5345
lwrist -39.2294
lhand -9.56726 -7.70894
lfingers 7.12502
lthumb 16.4003 21.6177
rfemur 11.6321 14.8424 23.0354
rtibia 12.657
rfoot -30.8948 -31.8365
rtoes -8.68286
lfemur -1.88497 -19.7576 -18.9331
ltibia 27.0846
lfoot -20.4409 3.92611
ltoes -15.8111
193
root 2.47612 17.6531 17.6028 -4.11981 21.3173 0.825913
lowerback 6.71594 4.51198 3.76578
upperback 0.753274 6.16904 -7.52528
thorax -1.72424 3.11209 -10.5732
lowerneck 3.82664 -8.5629 -5.04293
upperneck 9.57342 -11.9052 5.3591
head 3.14555 -5.95644 2.38511
rclavicle 7.95139e-016 3.18055e-015
rhumerus 65.2059 -28.0061 -85.8747
rradius 8.49962
rwrist 58.4282
rhand -3.13899 8.19853
rfingers 7.12502
rthumb 22.5806 -20.5008
lclavicle 7.95139e-016 3.18055e-015
lhumerus -31.4747 34.6089 65.2388
lradius 16.5894
lwrist -39.2412
lhand -9.56748 -7.69965
lfingers 7.12502
lthumb 16.4001 21.627
rfemur 11.581 14.8967 23.0217
rtibia 12.7078
rfoot -30.8713 -31.8086
rtoes -8.69597
lfemur -1.86494 -19.7371 -18.9465
ltibia 27.0633
lfoot -20.4332 3.99228
ltoes -15.81
194
root 2.47744 17.6533 17.6003 -4.10955 21.2218 0.838316
lowerback 6.66794 4.50387 3.70928
upperback 0.750101 6.15341 -7.51216
thorax -1.71167 3.10445 -10.5197
lowerneck 3.80559 -8.53954 -5.04826
upperneck 9.56627 -11.8729 5.35329
head 3.14472 -5.94052 2.38435
rclavicle 1.24141e-013 -3.49861e-014
rhumerus 65.0438 -28.0656 -85.9041
rradius 8.79958
rwrist 57.6227
rhand -3.54472 8.56655
rfingers 7.12502
rthumb 22.1911 -20.1797
lclavicle 1.24141e-013 -3.49861e-014
lhumerus -31.5038 34.6798 65.2132
lradius 16.5729
lwrist -39.3086
lhand -9.60291 -7.61978
lfingers 7.12502
lthumb 16.366 21.7097
rfemur 11.5336 14.8986 22.9769
rtibia 12.7402
rfoot -30.8036 -31.7295
rtoes -8.72403
lfemur -1.84839 -19.7248 -18.9762
ltibia 27.0476
lfoot -20.4317 4.07916
ltoes -15.8112
195
root 2.47836 17.6537 17.5974 -4.11049 21.1304 0.837662
lowerback 6.61368 4.4851 3.63471
upperback 0.764105 6.1229 -7.46866
thorax -1.68606 3.09001 -10.4195
lowerneck 3.72787 -8.51042 -5.0526
upperneck 9.5931 -11.828 5.29556
head 3.16085 -5.91832 2.36334
rclavicle 4.87022e-015 -3.65764e-014
rhumerus 64.9017 -28.0901 -85.9152
rradius 9.15638
rwrist 56.7467
rhand -3.83414 8.96682
rfingers 7.12502
rthumb 21.9132 -19.8122
lclavicle 4.87022e-015 -3.65764e-014
lhumerus -31.5645 34.744 65.2483
lradius 16.6532
lwrist -39.307
lhand -9.58449 -7.51805
lfingers 7.12502
lthumb 16.3837 21.81
rfemur 11.4923 14.9487 22.9647
rtibia 12.7769
rfoot -30.7685 -31.6973
rtoes -8.74066
lfemur -1.82695 -19.6948 -18.9863
ltibia 27.0326
lfoot -20.4318 4.14072
ltoes -15.8099
196
root 2.48035 17.6542 17.5941 -4.11906 21.0596 0.822729
lowerback 6.59591 4.46071 3.60294
upperback 0.750425 6.08681 -7.44512
thorax -1.70399 3.07008 -10.3722
lowerneck 3.69854 -8.48348 -5.01505
upperneck 9.60238 -11.787 5.24771
head 3.16007 -5.89735 2.34091
rclavicle 1.13307e-014 -4.13472e-014
rhumerus 64.6963 -28.183 -85.9089
rradius 9.46901
rwrist 55.7898
rhand -4.18404 9.52577
rfingers 7.12502
rthumb 21.5772 -19.2922
lclavicle 1.13307e-014 -4.13472e-014
lhumerus -31.6379 34.7301 65.2436
lradius 16.6958
lwrist -39.2707
lhand -9.65214 -7.40305
lfingers 7.12502
lthumb 16.3186 21.9303
rfemur 11.4653 14.9986 22.9689
rtibia 12.7999
rfoot -30.752 -31.6832
rtoes -8.75655
lfemur -1.80812 -19.6869 -18.9887
ltibia 27.0219
lfoot -20.4304 4.20414
ltoes -15.8087
